<svg id="圖層_1" data-name="圖層 1" xmlns="http://www.w3.org/2000/svg" viewBox="0 0 150 150"><title>audio100</title><path d="M83.2,18.59,50.21,42l-9.37,6.64H16.5a8.17,8.17,0,0,0-8.18,8.17V93.23a8.17,8.17,0,0,0,8.18,8.17H41.08l9.13,6.47,33,23.39a8.54,8.54,0,0,0,13.48-7V25.56A8.54,8.54,0,0,0,83.2,18.59Z"/><path d="M101,22.78V33a43,43,0,0,1,0,84.1v10.17a53,53,0,0,0,0-104.44Z"/><path d="M101,40.13v13.7a23,23,0,0,1,0,42.34v13.7a36,36,0,0,0,0-69.74Z"/><path d="M101,61.77V88.23a16,16,0,0,0,0-26.46Z"/></svg>