<svg id="圖層_1" data-name="圖層 1" xmlns="http://www.w3.org/2000/svg" viewBox="0 0 150 150"><title>norepeat</title><path d="M66.69,49.61l6.38-21.08h-31A37.51,37.51,0,0,0,4.55,66v10.2H26.18V68.79A19.18,19.18,0,0,1,45.35,49.61Z"/><polygon points="145.83 39.16 109.6 13.59 98.69 49.61 104.52 49.61 104.52 68.32 145.83 39.16"/><polygon points="51.37 100.21 45.48 100.21 45.48 81.68 4.17 110.84 40.4 136.41 51.37 100.21"/><path d="M125.32,73.58a1.51,1.51,0,0,0-1.5,1.51v6a19.17,19.17,0,0,1-19.17,19.17H83.36L77,121.29h31a37.51,37.51,0,0,0,37.51-37.51V73.58Z"/><polygon points="45.31 140 65.31 140 104.69 10 84.69 10 45.31 140"/></svg>