<svg id="圖層_1" data-name="圖層 1" xmlns="http://www.w3.org/2000/svg" viewBox="0 0 150 150"><title>onerepeat</title><path d="M104.52,53c.49,0,1,0,1.48,0a47.93,47.93,0,0,1,16.23,2.82l23.6-16.66L104.52,10V28.53H42.06A37.51,37.51,0,0,0,4.55,66v10.2H26.18V68.79A19.18,19.18,0,0,1,45.35,49.61h59.17Z"/><path d="M58,101c0-.26,0-.52,0-.79H45.48V81.68L4.17,110.84,45.48,140V121.29h17A47.8,47.8,0,0,1,58,101Z"/><path d="M145.45,73.67v-.09h-.06Z"/><path d="M106,62a39,39,0,1,0,39,39A39,39,0,0,0,106,62Zm7.44,72.34H102.7V80.08H93.62V71h19.82Z"/></svg>